#!OML:ASF F:\VICON\USERDATA\INSTALL\rory3\rory3.ASF
:FULLY-SPECIFIED
:DEGREES
807
root 10.2471 18.0342 10.0403 11.8698 42.2317 5.50071
lowerback -7.89029 -1.25983 -3.41034
upperback -2.36471 -1.33726 -1.50201
thorax 2.01847 -0.657222 0.238584
lowerneck -17.6767 -0.42294 1.93836
upperneck 25.8138 -0.574085 -1.67538
head 11.3003 -0.227456 -1.01632
rclavicle 1.16232e-013 2.80286e-014
rhumerus -34.3898 4.34971 -87.2835
rradius 27.6273
rwrist 7.19607
rhand -20.4675 10.7507
rfingers 7.12502
rthumb 5.88849 -19.1475
lclavicle 1.16232e-013 2.80286e-014
lhumerus -35.7601 -17.3538 88.5265
lradius 50.2627
lwrist 18.6276
lhand -8.24616 27.2425
lfingers 7.12502
lthumb 17.672 56.4594
rfemur -30.1644 3.86392 9.06361
rtibia 21.5478
rfoot -8.24998 18.8972
rtoes -9.43747
lfemur -8.66433 3.02081 -24.9662
ltibia 25.423
lfoot -20.3211 -9.28248
ltoes -7.23268
808
root 10.2824 18.0323 10.1221 12.2233 42.816 5.81021
lowerback -8.15634 -1.18196 -3.44118
upperback -2.19397 -1.20775 -1.66575
thorax 2.33583 -0.597828 0.0919562
lowerneck -18.1743 -0.602916 1.99687
upperneck 25.8996 -0.875708 -1.62402
head 11.4248 -0.352393 -1.05652
rclavicle -9.24877e-014 -6.26172e-015
rhumerus -33.7533 3.98573 -87.2974
rradius 27.4315
rwrist 7.16929
rhand -20.5106 10.8955
rfingers 7.12502
rthumb 5.84685 -19.0038
lclavicle -9.24877e-014 -6.26172e-015
lhumerus -35.6361 -17.6251 88.5226
lradius 49.4731
lwrist 18.3349
lhand -7.70853 27.5232
lfingers 7.12502
lthumb 18.1893 56.6928
rfemur -29.9961 3.35083 9.00594
rtibia 21.9387
rfoot -7.79267 19.5334
rtoes -10.7894
lfemur -8.55651 2.75351 -24.998
ltibia 25.5155
lfoot -20.3273 -9.52979
ltoes -6.9694
809
root 10.3027 18.0309 10.1976 12.3014 43.3044 5.85802
lowerback -8.28114 -1.12412 -3.35878
upperback -2.02974 -1.12396 -1.75925
thorax 2.56942 -0.560001 -0.0466674
lowerneck -18.384 -0.718681 2.08771
upperneck 25.8664 -1.07811 -1.61512
head 11.4486 -0.434556 -1.1003
rclavicle -1.58391e-014 3.57812e-015
rhumerus -33.1653 3.70831 -87.3765
rradius 27.1881
rwrist 7.3639
rhand -20.6376 10.8776
rfingers 7.12502
rthumb 5.72426 -19.0251
lclavicle -1.58391e-014 3.57812e-015
lhumerus -35.4859 -17.6607 88.3821
lradius 48.5894
lwrist 17.9697
lhand -7.07326 27.893
lfingers 7.12502
lthumb 18.8004 57.0045
rfemur -29.8462 3.37135 9.0681
rtibia 22.3553
rfoot -7.53087 19.7997
rtoes -12.6766
lfemur -8.38491 2.4909 -24.8221
ltibia 25.5635
lfoot -20.3537 -9.42296
ltoes -7.93409
810
root 10.3197 18.0328 10.2718 12.2168 43.8299 5.70845
lowerback -8.08444 -1.06859 -3.26431
upperback -2.08144 -1.07123 -1.70238
thorax 2.40489 -0.531288 -0.0309903
lowerneck -18.323 -0.84236 2.10205
upperneck 25.8891 -1.24085 -1.66331
head 11.4407 -0.511461 -1.14437
rclavicle 2.7204e-014 1.78906e-014
rhumerus -33.0165 3.49461 -87.283
rradius 27.0907
rwrist 7.56513
rhand -20.8118 10.7449
rfingers 7.12502
rthumb 5.55604 -19.1623
lclavicle 2.7204e-014 1.78906e-014
lhumerus -35.6459 -17.6484 88.4785
lradius 47.553
lwrist 17.8333
lhand -7.41526 27.8415
lfingers 7.12502
lthumb 18.4714 56.9845
rfemur -29.7312 3.47855 9.28197
rtibia 22.724
rfoot -6.95651 19.9954
rtoes -12.4304
lfemur -8.18523 2.12825 -24.4731
ltibia 25.5658
lfoot -20.2094 -9.30207
ltoes -8.18187
811
root 10.3472 18.0383 10.351 12.3675 44.4065 5.86621
lowerback -7.89169 -1.04133 -3.33865
upperback -2.20712 -1.0414 -1.68889
thorax 2.16878 -0.512433 0.0325062
lowerneck -18.2123 -0.992149 1.97392
upperneck 25.9365 -1.42707 -1.59692
head 11.4342 -0.597623 -1.1253
rclavicle -1.49974e-014 1.98785e-015
rhumerus -32.9057 3.15562 -87.1026
rradius 26.8523
rwrist 7.91719
rhand -20.8409 10.5719
rfingers 7.12502
rthumb 5.52794 -19.336
lclavicle -1.49974e-014 1.98785e-015
lhumerus -35.9888 -17.5883 88.6792
lradius 46.4135
lwrist 17.6301
lhand -8.13192 27.258
lfingers 7.12502
lthumb 17.7819 56.4649
rfemur -29.5748 3.30062 9.3077
rtibia 22.9407
rfoot -6.33375 20.39
rtoes -11.7849
lfemur -7.979 1.70152 -24.3578
ltibia 25.5838
lfoot -20.0622 -9.33937
ltoes -7.1518
812
root 10.3759 18.0469 10.4297 12.4803 44.9563 6.00324
lowerback -7.98677 -1.0333 -3.35211
upperback -2.11135 -1.0225 -1.68162
thorax 2.32043 -0.505758 0.0466326
lowerneck -18.2697 -1.11429 1.83108
upperneck 25.8996 -1.58099 -1.51509
head 11.4303 -0.670925 -1.09407
rclavicle 2.23151e-014 1.44119e-014
rhumerus -32.4015 2.95765 -87.0195
rradius 26.466
rwrist 8.20836
rhand -20.8978 10.5633
rfingers 7.12502
rthumb 5.47301 -19.346
lclavicle 2.23151e-014 1.44119e-014
lhumerus -35.9412 -17.3969 88.708
lradius 45.0506
lwrist 17.0535
lhand -8.70462 26.7315
lfingers 7.12502
lthumb 17.2308 55.9875
rfemur -29.3358 3.15226 9.33818
rtibia 23.0354
rfoot -5.92514 20.5868
rtoes -12.8361
lfemur -7.76177 1.43413 -24.256
ltibia 25.6066
lfoot -19.9704 -9.24908
ltoes -7.79177
813
root 10.4023 18.0568 10.5096 12.4389 45.5361 5.8416
lowerback -8.14706 -1.0112 -3.16603
upperback -2.03062 -0.999713 -1.64849
thorax 2.48989 -0.496474 -0.0247694
lowerneck -18.3077 -1.23513 1.73153
upperneck 25.8626 -1.76135 -1.38042
head 11.4227 -0.744884 -1.05455
rclavicle 2.6634e-014 8.74653e-015
rhumerus -31.8918 2.79509 -87.016
rradius 26.0129
rwrist 8.46849
rhand -21.0289 10.7624
rfingers 7.12502
rthumb 5.34643 -19.1501
lclavicle 2.6634e-014 8.74653e-015
lhumerus -35.8937 -17.0575 88.6068
lradius 43.6239
lwrist 16.3925
lhand -9.17553 26.5063
lfingers 7.12502
lthumb 16.7775 55.8014
rfemur -29.1224 3.12115 9.58146
rtibia 23.1226
rfoot -5.48199 20.4858
rtoes -13.6605
lfemur -7.60659 1.29932 -23.8945
ltibia 25.5913
lfoot -19.7067 -9.33897
ltoes -8.76808
814
root 10.4268 18.0643 10.5916 12.5654 46.0916 5.88893
lowerback -8.22988 -1.01013 -3.21499
upperback -2.03475 -0.991009 -1.6109
thorax 2.53284 -0.49258 0.0410101
lowerneck -18.2744 -1.34883 1.66276
upperneck 25.8764 -1.90722 -1.35194
head 11.4196 -0.812865 -1.05386
rclavicle -5.32339e-014 4.96962e-015
rhumerus -31.5142 2.70966 -86.985
rradius 25.5996
rwrist 8.66494
rhand -21.0809 10.9335
rfingers 7.12502
rthumb 5.29619 -18.9803
lclavicle -5.32339e-014 4.96962e-015
lhumerus -35.9997 -16.6386 88.5483
lradius 42.2726
lwrist 15.9089
lhand -9.25202 26.4212
lfingers 7.12502
lthumb 16.7038 55.7225
rfemur -28.9222 3.04349 9.6882
rtibia 23.2281
rfoot -4.82181 20.2965
rtoes -13.2115
lfemur -7.4406 1.15204 -23.675
ltibia 25.5826
lfoot -19.5011 -9.37581
ltoes -11.1528
815
root 10.4525 18.0713 10.6737 12.7792 46.6436 6.12061
lowerback -8.31996 -1.02405 -3.33785
upperback -1.9838 -0.991551 -1.64379
thorax 2.63702 -0.494732 0.0736524
lowerneck -18.2759 -1.43873 1.65145
upperneck 25.8437 -2.0405 -1.3187
head 11.4055 -0.869763 -1.05912
rclavicle -8.24366e-014 -8.74653e-015
rhumerus -31.028 2.47746 -86.9679
rradius 25.1417
rwrist 9.00491
rhand -21.1351 11.0389
rfingers 7.12502
rthumb 5.24395 -18.8762
lclavicle -8.24366e-014 -8.74653e-015
lhumerus -36.0502 -16.1996 88.3755
lradius 40.9154
lwrist 15.4454
lhand -9.22866 26.4451
lfingers 7.12502
lthumb 16.7263 55.7446
rfemur -28.6539 2.9216 9.67316
rtibia 23.3295
rfoot -4.33287 20.0961
rtoes -12.2988
lfemur -7.22251 1.02886 -23.5922
ltibia 25.6182
lfoot -19.3458 -9.3498
ltoes -14.4399
816
root 10.4788 18.0804 10.7568 12.9564 47.1981 6.35586
lowerback -8.39789 -1.03519 -3.47104
upperback -1.89929 -0.98779 -1.65753
thorax 2.76964 -0.495866 0.132098
lowerneck -18.3593 -1.54199 1.5042
upperneck 25.8574 -2.1862 -1.16609
head 11.4288 -0.929722 -1.00107
rclavicle 3.11284e-014 3.37934e-015
rhumerus -30.5114 2.18965 -86.9169
rradius 24.6342
rwrist 9.50121
rhand -21.2197 10.8846
rfingers 7.12502
rthumb 5.1622 -19.0325
lclavicle 3.11284e-014 3.37934e-015
lhumerus -36.0584 -15.5944 88.1481
lradius 39.563
lwrist 14.865
lhand -9.11396 26.5937
lfingers 7.12502
lthumb 16.8367 55.8838
rfemur -28.306 2.69192 9.69819
rtibia 23.4189
rfoot -3.80415 19.8297
rtoes -10.1368
lfemur -7.01914 0.910427 -23.4731
ltibia 25.6935
lfoot -19.1192 -9.61788
ltoes -16.1105
817
root 10.503 18.0912 10.8409 13.2536 47.8104 6.6511
lowerback -8.50764 -1.07663 -3.65289
upperback -1.87595 -1.01887 -1.67438
thorax 2.85843 -0.513308 0.210909
lowerneck -18.3467 -1.66479 1.30887
upperneck 25.8598 -2.35595 -0.965333
head 11.4304 -0.998921 -0.919492
rclavicle -2.64089e-014 9.44227e-015
rhumerus -30.1151 2.12465 -86.9564
rradius 24.2431
rwrist 9.82577
rhand -21.2602 10.5574
rfingers 7.12502
rthumb 5.12313 -19.3607
lclavicle -2.64089e-014 9.44227e-015
lhumerus -36.1801 -14.9889 87.9435
lradius 38.2443
lwrist 14.3444
lhand -9.20154 26.5966
lfingers 7.12502
lthumb 16.7524 55.8938
rfemur -28.0263 2.2447 9.74878
rtibia 23.5323
rfoot -3.32616 19.4417
rtoes -7.51992
lfemur -6.92783 0.740888 -23.3513
ltibia 25.7467
lfoot -18.5737 -10.1088
ltoes -15.6641
